<svg width="36" height="37" viewBox="0 0 36 37" fill="none" xmlns="http://www.w3.org/2000/svg">
<path d="M11.5202 3.10669C6.35954 3.10669 2.16016 7.30608 2.16016 12.4667V25.4267C2.16016 30.5873 6.35954 34.7867 11.5202 34.7867H24.4802C29.6408 34.7867 33.8402 30.5873 33.8402 25.4267V12.4667C33.8402 7.30608 29.6408 3.10669 24.4802 3.10669H11.5202ZM11.5202 4.54669H24.4802C28.8624 4.54669 32.4002 8.08442 32.4002 12.4667V25.4267C32.4002 29.809 28.8624 33.3467 24.4802 33.3467H11.5202C7.13789 33.3467 3.60016 29.809 3.60016 25.4267V12.4667C3.60016 8.08442 7.13789 4.54669 11.5202 4.54669ZM26.6402 8.86669C26.2582 8.86669 25.892 9.0184 25.6219 9.28846C25.3519 9.55851 25.2002 9.92478 25.2002 10.3067C25.2002 10.6886 25.3519 11.0549 25.6219 11.3249C25.892 11.595 26.2582 11.7467 26.6402 11.7467C27.0221 11.7467 27.3883 11.595 27.6584 11.3249C27.9284 11.0549 28.0802 10.6886 28.0802 10.3067C28.0802 9.92478 27.9284 9.55851 27.6584 9.28846C27.3883 9.0184 27.0221 8.86669 26.6402 8.86669ZM18.0002 11.0267C13.6346 11.0267 10.0802 14.5811 10.0802 18.9467C10.0802 23.3123 13.6346 26.8667 18.0002 26.8667C22.3657 26.8667 25.9202 23.3123 25.9202 18.9467C25.9202 14.5811 22.3657 11.0267 18.0002 11.0267ZM18.0002 12.4667C21.5875 12.4667 24.4802 15.3594 24.4802 18.9467C24.4802 22.534 21.5875 25.4267 18.0002 25.4267C14.4128 25.4267 11.5202 22.534 11.5202 18.9467C11.5202 15.3594 14.4128 12.4667 18.0002 12.4667Z" fill="black"/>
</svg>
