<svg width="43" height="41" viewBox="0 0 43 41" fill="none" xmlns="http://www.w3.org/2000/svg">
<g clip-path="url(#clip0_3618_27836)">
<path d="M11.2512 8.0381C10.8229 10.7024 11.5954 12.9869 13.9646 14.5866C14.7429 15.1086 15.6799 15.4248 16.5289 15.8402C18.7681 16.9235 19.8581 18.6972 19.8256 21.1313C19.8103 22.3325 19.6478 23.5468 19.7854 24.7293C20.0952 27.4123 21.8506 28.9558 24.3174 29.8969C26.2946 30.6453 27.7039 31.9999 28.2604 34.0375C28.922 36.4566 27.6867 38.902 25.2008 40.2772C23.2102 41.3755 20.7224 40.962 18.9115 39.3024C17.4009 37.9347 16.8961 36.2658 17.1179 34.2938C17.246 33.277 17.2518 32.249 17.1351 31.231C16.8808 29.2907 15.6914 27.9361 13.9857 26.9838C13.0774 26.4749 12.1576 25.9828 11.2569 25.4571C9.50344 24.4336 8.511 22.9668 8.58941 20.9087C8.61426 20.2351 8.64104 19.5597 8.69649 18.8899C8.98715 15.4828 7.53769 13.1871 4.24868 11.8998C2.57549 11.245 1.24076 10.244 0.479698 8.59005C-0.824434 5.75362 0.625026 2.44196 3.68266 1.33994C7.64477 -0.0876268 11.3315 2.43447 11.3201 6.57873C11.3201 7.04648 11.278 7.51423 11.2512 8.04372" fill="black"/>
<path d="M25.0152 20.4148C25.0649 19.9377 25.107 19.4419 25.1739 18.948C25.6615 15.307 24.1145 12.7737 20.5846 11.4472C17.743 10.3788 16.4351 8.26646 16.8424 5.4001C17.2248 2.68903 20.0798 0.557963 22.9997 0.932162C25.7227 1.28017 28.0652 3.63388 27.765 6.57321C27.6024 8.16543 27.3443 9.76326 28.0116 11.3443C28.3407 12.1474 28.8321 12.8772 29.4564 13.4899C30.0807 14.1027 30.8251 14.5859 31.6448 14.9104C32.8361 15.4081 34.037 15.8571 34.8746 16.9067C36.3259 18.701 36.5038 20.9331 35.3067 23.081C34.3124 24.8566 32.0349 25.9455 29.8932 25.6667C27.5986 25.3674 25.6864 23.7751 25.1624 21.6647C25.0868 21.254 25.0376 20.839 25.0152 20.4223" fill="black"/>
<path d="M43.0009 5.99895C42.9992 6.66543 42.862 7.32493 42.5974 7.93906C42.3328 8.55319 41.9459 9.10968 41.4594 9.57614C40.9729 10.0426 40.3964 10.4097 39.7635 10.6561C39.1306 10.9025 38.4539 11.0233 37.7729 11.0113C34.828 10.9515 32.6309 8.68944 32.6825 5.77256C32.7284 3.09517 35.1684 0.868684 38.01 0.921072C40.7674 0.971589 43.0372 3.28414 43.0009 6.00269" fill="black"/>
</g>
<defs>
<clipPath id="clip0_3618_27836">
<rect width="43" height="40" fill="white" transform="translate(0 0.88916)"/>
</clipPath>
</defs>
</svg>
