<svg width="43" height="40" viewBox="0 0 43 40" fill="none" xmlns="http://www.w3.org/2000/svg">
<g clip-path="url(#clip0_3588_27794)">
<path d="M11.2512 7.14894C10.8229 9.81324 11.5954 12.0977 13.9646 13.6974C14.7429 14.2194 15.6799 14.5356 16.5289 14.951C18.7681 16.0343 19.8581 17.808 19.8256 20.2422C19.8103 21.4433 19.6478 22.6576 19.7854 23.8401C20.0952 26.5231 21.8506 28.0667 24.3174 29.0078C26.2946 29.7562 27.7039 31.1108 28.2604 33.1483C28.922 35.5675 27.6867 38.0129 25.2008 39.3881C23.2102 40.4863 20.7224 40.0728 18.9115 38.4133C17.4009 37.0456 16.8961 35.3766 17.1179 33.4046C17.246 32.3878 17.2518 31.3599 17.1351 30.3418C16.8808 28.4016 15.6914 27.047 13.9857 26.0946C13.0774 25.5857 12.1576 25.0937 11.2569 24.5679C9.50344 23.5445 8.511 22.0776 8.58941 20.0195C8.61426 19.346 8.64104 18.6705 8.69649 18.0007C8.98715 14.5936 7.53769 12.2979 4.24868 11.0107C2.57549 10.3558 1.24076 9.35485 0.479698 7.70089C-0.824434 4.86446 0.625026 1.5528 3.68266 0.450782C7.64477 -0.976787 11.3315 1.54531 11.3201 5.68957C11.3201 6.15732 11.278 6.62507 11.2512 7.15456" fill="white"/>
<path d="M25.0152 19.5257C25.0649 19.0486 25.107 18.5528 25.1739 18.0588C25.6615 14.4179 24.1145 11.8845 20.5846 10.558C17.743 9.48966 16.4351 7.3773 16.8424 4.51094C17.2248 1.79987 20.0798 -0.331197 22.9997 0.043002C25.7227 0.391007 28.0652 2.74472 27.765 5.68405C27.6024 7.27627 27.3443 8.8741 28.0116 10.4551C28.3407 11.2582 28.8321 11.988 29.4564 12.6008C30.0807 13.2136 30.8251 13.6967 31.6448 14.0212C32.8361 14.5189 34.037 14.9679 34.8746 16.0176C36.3259 17.8118 36.5038 20.0439 35.3067 22.1918C34.3124 23.9674 32.0349 25.0563 29.8932 24.7776C27.5986 24.4782 25.6864 22.886 25.1624 20.7755C25.0868 20.3648 25.0376 19.9499 25.0152 19.5332" fill="white"/>
<path d="M43.0009 5.10979C42.9992 5.77627 42.862 6.43577 42.5974 7.0499C42.3328 7.66403 41.9459 8.22052 41.4594 8.68698C40.9729 9.15344 40.3964 9.52055 39.7635 9.76695C39.1306 10.0133 38.4539 10.1341 37.7729 10.1222C34.828 10.0623 32.6309 7.80028 32.6825 4.8834C32.7284 2.20601 35.1684 -0.020476 38.01 0.0319119C40.7674 0.0824288 43.0372 2.39498 43.0009 5.11353" fill="white"/>
</g>
<defs>
<clipPath id="clip0_3588_27794">
<rect width="43" height="40" fill="white"/>
</clipPath>
</defs>
</svg>
