<svg width="36" height="37" viewBox="0 0 36 37" fill="none" xmlns="http://www.w3.org/2000/svg">
<g clip-path="url(#clip0_3656_27844)">
<path d="M24.6374 4.1687C20.3315 4.1687 16.8299 7.67026 16.8299 11.9762C16.8299 12.235 16.8946 12.4881 16.9199 12.7412C11.5959 12.2321 6.88775 9.66714 3.68994 5.7437C3.54088 5.55526 3.31026 5.45401 3.06838 5.47089C2.82932 5.48776 2.61557 5.62558 2.49744 5.8337C1.82526 6.98964 1.43994 8.31995 1.43994 9.7487C1.43994 11.4784 2.05869 13.0618 3.01494 14.3612C2.82932 14.2796 2.62682 14.2346 2.45244 14.1362C2.23026 14.0181 1.96307 14.0237 1.74651 14.1531C1.52994 14.2825 1.39776 14.5159 1.39494 14.7662V14.8562C1.39494 17.5084 2.76744 19.8118 4.79244 21.2237C4.76994 21.2209 4.74744 21.2293 4.72494 21.2237C4.47744 21.1815 4.22713 21.2687 4.06119 21.4571C3.89525 21.6456 3.84182 21.9071 3.91494 22.1462C4.71932 24.6465 6.77244 26.5562 9.31494 27.2537C7.28994 28.4575 4.9415 29.1662 2.40744 29.1662C1.85901 29.1662 1.33307 29.1381 0.809943 29.0762C0.472443 29.0312 0.149005 29.2281 0.0365056 29.5487C-0.0788069 29.8693 0.0477556 30.2265 0.337443 30.4037C3.58588 32.4878 7.44182 33.7112 11.5874 33.7112C18.3065 33.7112 23.5771 30.9043 27.1124 26.8937C30.6478 22.8831 32.4899 17.6743 32.4899 12.8087C32.4899 12.6034 32.4731 12.4037 32.4674 12.2012C33.7865 11.1915 34.9649 10.0075 35.8874 8.6237C36.0703 8.35651 36.0506 7.99933 35.8396 7.75183C35.6315 7.50433 35.2799 7.42839 34.9874 7.5662C34.6162 7.73214 34.1831 7.74901 33.7949 7.8812C34.3068 7.19776 34.7456 6.46089 35.0099 5.6312C35.0999 5.34714 35.0015 5.03495 34.7681 4.84933C34.5346 4.66651 34.2084 4.64401 33.9524 4.7987C32.7234 5.52714 31.3621 6.03901 29.9249 6.3512C28.5299 5.0462 26.6934 4.1687 24.6374 4.1687ZM24.6374 5.6087C26.474 5.6087 28.1334 6.39339 29.2949 7.6337C29.4693 7.8137 29.7253 7.88964 29.9699 7.8362C30.9093 7.65058 31.8009 7.37776 32.6699 7.0262C32.1693 7.7012 31.5506 8.27776 30.8249 8.7137C30.4959 8.87401 30.3412 9.2537 30.4621 9.59964C30.5803 9.94276 30.9403 10.1425 31.2974 10.0637C32.0174 9.97651 32.6587 9.68401 33.3449 9.5012C32.729 10.1678 32.054 10.7696 31.3199 11.3012C31.1203 11.4475 31.0106 11.6837 31.0274 11.9312C31.0387 12.2237 31.0499 12.5134 31.0499 12.8087C31.0499 17.3087 29.3231 22.194 26.0324 25.9262C22.7418 29.6584 17.9099 32.2712 11.5874 32.2712C8.71588 32.2712 6.00463 31.6356 3.55494 30.5162C6.59244 30.2828 9.39369 29.2084 11.6549 27.4337C11.8912 27.2453 11.984 26.9303 11.8884 26.6434C11.7928 26.3565 11.5284 26.1596 11.2274 26.1512C8.85369 26.109 6.86525 24.7281 5.80494 22.7762C5.84432 22.7762 5.87807 22.7762 5.91744 22.7762C6.629 22.7762 7.33213 22.6862 7.98744 22.5062C8.30244 22.4134 8.519 22.1209 8.50775 21.7918C8.4965 21.4628 8.26307 21.1815 7.94244 21.1112C5.38025 20.5937 3.45932 18.5068 3.01494 15.9137C3.74057 16.164 4.48307 16.3609 5.28744 16.3862C5.6165 16.4059 5.91463 16.2006 6.01588 15.8884C6.11713 15.5762 5.99338 15.2331 5.71494 15.0587C4.00494 13.914 2.87994 11.965 2.87994 9.7487C2.87994 8.92745 3.09369 8.1737 3.37494 7.4537C6.97494 11.4053 12.0149 14.0293 17.7074 14.3162C17.9324 14.3275 18.1518 14.2346 18.2981 14.0631C18.4443 13.8887 18.5006 13.6581 18.4499 13.4387C18.3403 12.9718 18.2699 12.4768 18.2699 11.9762C18.2699 8.44933 21.1106 5.6087 24.6374 5.6087Z" fill="black"/>
</g>
<defs>
<clipPath id="clip0_3656_27844">
<rect width="36" height="36" fill="white" transform="translate(0 0.231201)"/>
</clipPath>
</defs>
</svg>
